<svg xmlns="http://www.w3.org/2000/svg" viewBox="0 0 64 64" width="64" height="64">
  <g fill="none" stroke="#5A5A5A" stroke-width="2.2" stroke-linecap="round" stroke-linejoin="round">
    <!-- 问号 -->
    <text x="46" y="18" font-family="Arial,sans-serif" font-size="16" fill="#5A5A5A" stroke="none" font-weight="600">?</text>
    <!-- 左耳 -->
    <ellipse cx="14" cy="34" rx="6" ry="7"/>
    <ellipse cx="14" cy="34" rx="2.8" ry="3.2" fill="#5A5A5A" stroke="none"/>
    <!-- 右耳 -->
    <ellipse cx="50" cy="34" rx="6" ry="7"/>
    <ellipse cx="50" cy="34" rx="2.8" ry="3.2" fill="#5A5A5A" stroke="none"/>
    <!-- 头轮廓 -->
    <ellipse cx="32" cy="38" rx="20" ry="18"/>
    <!-- 脸部区域 -->
    <ellipse cx="32" cy="42" rx="14" ry="12"/>
    <!-- 左眼（眯眼/疑惑）-->
    <path d="M24 41 Q26.5 39 29 41"/>
    <!-- 右眼（睁大）-->
    <circle cx="38" cy="40" r="2.8" fill="#5A5A5A" stroke="none"/>
    <circle cx="37.2" cy="39.2" r="1" fill="white" stroke="none"/>
    <!-- 嘴巴（歪嘴疑惑）-->
    <path d="M27 49 Q30 47 33 49" stroke-width="1.8"/>
    <!-- 手托下巴 -->
    <path d="M20 52c0-3 2-5 4-5c2 0 3 1.5 3 3.5c0 2-1.5 3.5-3.5 3.5c-2 0-3.5-1-3.5-2z"/>
    <path d="M22 49c1-1 2-1.5 3-1.5" stroke-width="1.5"/>
  </g>
</svg>