<svg xmlns="http://www.w3.org/2000/svg" viewBox="0 0 64 64" width="64" height="64">
  <g fill="none" stroke="#5A5A5A" stroke-width="2.2" stroke-linecap="round" stroke-linejoin="round">
    <!-- 左耳 -->
    <ellipse cx="14" cy="30" rx="6" ry="7"/>
    <ellipse cx="14" cy="30" rx="2.8" ry="3.2" fill="#5A5A5A" stroke="none"/>
    <!-- 右耳 -->
    <ellipse cx="50" cy="30" rx="6" ry="7"/>
    <ellipse cx="50" cy="30" rx="2.8" ry="3.2" fill="#5A5A5A" stroke="none"/>
    <!-- 头轮廓 -->
    <ellipse cx="32" cy="34" rx="20" ry="18"/>
    <!-- 脸部区域 -->
    <ellipse cx="32" cy="38" rx="14" ry="12"/>
    <!-- 左手（遮眼）-->
    <path d="M17 32c-1-3-4-5-7-4c-3 1-4 5-3 8c1 3 4 4 7 3c2-1 3-4 3-7z"/>
    <path d="M13 28c-2 0-4 1-5 3" stroke-width="1.8"/>
    <path d="M11 31c-1 0-2 .5-2.5 1.5" stroke-width="1.5"/>
    <!-- 右手（遮眼）-->
    <path d="M47 32c1-3 4-5 7-4c3 1 4 5 3 8c-1 3-4 4-7 3c-2-1-3-4-3-7z"/>
    <path d="M51 28c2 0 4 1 5 3" stroke-width="1.8"/>
    <path d="M53 31c1 0 2 .5 2.5 1.5" stroke-width="1.5"/>
    <!-- 嘴巴（被遮住，只露一点）-->
    <path d="M29 44 Q32 47 35 44" stroke-width="1.8"/>
  </g>
</svg>